<?xml version="1.0" encoding="UTF-8"?>
<svg version="1.1" viewBox="0 0 2048 936" width="1280" height="1280" xmlns="http://www.w3.org/2000/svg">
<path transform="translate(568,233)" d="m0 0 18 1 17 4 12 5 14 9 13 11 10 14 8 16 4 11 2 10 1 13-2 18-7 21-9 16-3 5-5 4-4 5-2 1 4-1 1-2h2l1-3h2l1-3 1 3-6 7h11l1 1 1 14 1 4 39-1 28-17 14-9h3l1 19v103l-1 6-11-6-35-21-38-1-1-1v70l-6 2h-138l-10-1-3-3v-45l1-1 58-1 1-22h-43l-16-1-1-1v-23l2-4 63-1 1-22h-92l1 6v116l-1 2-3 1h-49l-2 6-3 19-2 2-59 13-5 1-2 5-3 1-2 4-15 4-31 5h-5l-2-17v-9l7-2 37-7 6 1 7 4h7l51-10h3l2-21h-22l-2-1v-95l-15 1-5 5-3 2h-3l-12-23-9-20h13l19 7 15 1-1-8-13-6-11-6-10-8-8-9-9-16-4-11-2-10v-22l4-15 8-16 9-11 10-9 14-8 15-5 7-1h22l10 2 12 5 12 7 15 14 6 8 10-2 5-16 8-16 8-12 11-11 14-10 15-7 16-4zm-4 45-10 3v2l-5 1-4 3v2l-5 2-9 9-2 6 2 1h-3l-2 6 1 4 1-3v14l-2-10h-1v12l3 13 5 9 7 8 11 7 11 4 13 1 15-4 10-6 11-11 5-11 2-8v-15l-3-10-6-11-7-8-10-6-12-4zm-168 34-11 4-5 4-7 6-4 7-1 18-2 4 2 9 6 10 9 8 9 4 5 1h13l11-4 8-6 7-8 4-9 1-6v-10l-3-10-6-10-7-6-10-5-4-1zm-28 24m-1 4m121 34-4 2-5 6-2 1-1 6-2 1v6h-2v2l10 1h31l-6-7-8-9-7-9zm-15 11 1 2zm-5 10m-1 2m186 51m0 3 1 2zm0 3v34h1v-34zm-30 74-5 5 1 7 3 3h7l4-4v-7l-5-4z" fill="#FBFBFB"/>
<path transform="translate(1103,366)" d="m0 0h45l8 16 11 27 15 36 6 15 3-4 10-23 16-38 12-28 1-1h45l1 10v142l-1 1h-23l-11-1-1-1-1-65-1-25-11 27-13 31-11 25-5 9-19-1-8-16-17-41-4-9-11-26-1 92-1 1h-25l-10-1v-151z" fill="#FCDE60"/>
<path transform="translate(1592,364)" d="m0 0h83l1 8v25l-80 1v28h71l1 2v28l-1 1h-71v30l83 1 1 14v16l-1 1-52 1h-26l-42-1-2-3v-59l1-92z" fill="#F9F9F9"/>
<path transform="translate(1684,365)" d="m0 0h43l11 17 14 24 4 7 4-5 13-22 10-17 2-3 8-1h35l-1 4-17 29-12 19-14 23 3-1 1 2-1 2h-2l13 22 12 19 15 25 5 7v3h-36l-8-1-17-29-11-18h-1l-2 7-2 1-1-2v3l-3 1-15 26-6 10-2 2h-43l1-4 10-16 12-19 18-30 5-8-1-4-9-15-16-26-12-19-7-11z" fill="#FBFBFB"/>
<path transform="translate(1319,364)" d="m0 0h98l1 1 1 32-1 1h-56l-22 1v28h66l5 1 1 30-1 1-71 1-1 60h-13l-22-1-3-1v-153z" fill="#FAFAFA"/>
<path transform="translate(783,365)" d="m0 0h115l1 1 1 29-1 2h-80l1 30h60l10 1 1 10v20l-72 1 1 5v33l-1 21-1 1h-24l-11-1-1-3v-149z" fill="#FDDE60"/>
<path transform="translate(1435,366)" d="m0 0h37l1 1 1 43v70l-1 6h22l48 1 1 1 1 31-1 1h-83l-24-1-1-1-1-9z" fill="#FBFBFB"/>
<path transform="translate(736,390)" d="m0 0h3l1 19v103l-1 6-11-6-35-21-38-1-1-1v70l-6 2h-138v-1l15-1h127v-153h1l2 11 39-1 28-17zm-83 58m0 3 1 2zm0 3v34h1v-34z" fill="#FAFAFA"/>
<path transform="translate(980,366)" d="m0 0h35l1 2 1 42v77h68l1 1 1 7v24l-41 1-61-1-5-1-1-13v-137z" fill="#FBDD61"/>
<path transform="translate(917,366)" d="m0 0h35l1 2 1 105v41l-1 5h-31l-5-1-1-104v-44z" fill="#FDDF60"/>
<path transform="translate(652,406)" d="m0 0h1l2 12v70l-1 1v70l-6 2h-138v-1l15-1h127zm1 42m0 3 1 2zm0 3v34h1v-34z" fill="#ABABAB"/>
<path transform="translate(1410,435)" d="m0 0h1l1 23-1 1-71 1v15l-1 41h-1v-58l1-1h71z" fill="#9C9C9C"/>
<path transform="translate(1543,488)" d="m0 0h1l1 31-1 1h-83l-23-1v-1h105z" fill="#9C9C9C"/>
<path transform="translate(557,337)" d="m0 0 7 1 3 4v6l-4 4-5 1-4-2-2-3v-6z" fill="#FCFCFC"/>
<path transform="translate(585,333)" d="m0 0 7 1 3 3v6l-5 5h-6l-4-5v-6z" fill="#FDFDFD"/>
<path transform="translate(546,312)" d="m0 0 7 1 3 3v7l-5 4-7-1-3-4 1-7z" fill="#FDFDFD"/>
<path transform="translate(588,306)" d="m0 0 6 1 4 4-1 7-5 3-6-1-3-4 1-7z" fill="#FCFCFC"/>
<path transform="translate(564,292)" d="m0 0 7 1 3 3v6l-4 4-4 1-5-3-2-3v-5z" fill="#FDFDFD"/>
<path transform="translate(898,366)" d="m0 0h1l1 29-1 2h-80v-1h78z" fill="#9C9C9C"/>
<path transform="translate(481,375)" d="m0 0 4 1-4 5-4 2v6l-3 1 1 3-1 3h-2v2l-5-1 5-11 1-2 3-8z" fill="#9C9C9C"/>
<path transform="translate(417,334)" d="m0 0 5 1 2 2v7l-3 2-7-1-2-3 1-5z" fill="#FAFAFA"/>
<path transform="translate(414,356)" d="m0 0 6 1 2 2-1 7-2 2h-6l-3-5 1-5z" fill="#FDFDFD"/>
<path transform="translate(383,339)" d="m0 0 5 1 3 3-1 5-3 3h-5l-4-6 3-5z" fill="#FDFDFD"/>
<path transform="translate(392,360)" d="m0 0 5 1 2 3v5l-4 3-5-1-3-4 1-4z" fill="#FDFDFD"/>
<path transform="translate(399,322)" d="m0 0 5 3 1 1v5l-3 3h-6l-3-4 1-5z" fill="#FCFCFC"/>
<path transform="translate(367,336)" d="m0 0h3l-1 15-4 4v-11z" fill="#9C9C9C"/>
<path transform="translate(526,311)" d="m0 0 1 3 2-1v20h-1l-3-15v-6z" fill="#9E9E9E"/>
<path transform="translate(552,281)" d="m0 0h2v2l-8 4-4 4h-2l-1 3h-2l-1 3-2-2 9-9z" fill="#9C9C9C"/>
<path transform="translate(529,308)" d="m0 0 2 1-1 3-2-1z" fill="#9C9C9C"/>
<path transform="translate(648,385)" d="m0 0 1 3h-2z" fill="#9C9C9C"/>
<path transform="translate(1788,436)" d="m0 0" fill="#9C9C9C"/>
<path transform="translate(536,297)" d="m0 0" fill="#9C9C9C"/>
<path transform="translate(1749,481)" d="m0 0" fill="#9C9C9C"/>
<path transform="translate(649,384)" d="m0 0" fill="#9C9C9C"/>
<path transform="translate(650,383)" d="m0 0" fill="#9C9C9C"/>
<path transform="translate(651,382)" d="m0 0" fill="#9C9C9C"/>
<path transform="translate(528,334)" d="m0 0" fill="#9C9C9C"/>
<path transform="translate(375,325)" d="m0 0" fill="#9C9C9C"/>
<path transform="translate(377,323)" d="m0 0" fill="#9C9C9C"/>
<path transform="translate(378,322)" d="m0 0" fill="#9C9C9C"/>
<path transform="translate(533,302)" d="m0 0" fill="#9C9C9C"/>
</svg>
