<?xml version="1.0" encoding="UTF-8"?>
<svg version="1.1" viewBox="0 0 1752 800" width="1280" height="1280" xmlns="http://www.w3.org/2000/svg">
<path transform="translate(485,199)" d="m0 0 17 1 16 4 14 7 13 10 7 7 9 14 6 14 3 13v18l-3 15-6 15-7 11-6 8-4 3 12 1 3 2 1 14 3-1 9 1h20l14-8 21-13 2-2h3l1 10 1 52-1 48-5-2-28-17-10-4-29-1-2-1v60l-1 1-47 1h-77l-7-1-2-6v-33l1-3 49-1 1-19h-44l-6-1v-23h55v-20l-78-1 1 5 1 90-1 13h-47l-2 18-1 3-8 3-45 10h-2l-1 4-7 6-27 5-15 2-2-6-1-17 37-7h6l6 4 10-1 42-8 1-16-18-1-1-1-1-81h-10l-8 6-5-1-15-31-1-4 2-1 13 2 13 4 11 1v-5l-19-10-9-7-7-7-8-14-4-10-2-7-1-16 3-15 6-14 10-13 11-9 14-7 12-3h22l12 3 12 6 10 8 10 10 2 3h7l3-7 6-15 8-13 9-10 8-7 10-6 11-5 12-3zm1 38-13 3-8 5-7 6-5 8-3 7-1 5v14l3 10 7 9 9 8 11 5 6 1h8l13-4 9-6 7-7 5-10 2-15-2-12-6-11-5-6-9-6-8-3zm-143 29-10 2-10 6-7 9-3 8v16l4 9 7 8 12 6 4 1h10l10-3 8-6 6-9 3-9v-11l-3-9-4-6-7-7-9-4zm75 53-9 2-5 9 1 5-1 2 1 2-4-3-2 5h40l-6-7-7-8-6-7zm115 133-3 1v9l4 2h5l2-2v-8l-3-2z" fill="#FDFCFC"/>
<path transform="translate(943,313)" d="m0 0h40l4 8 15 37 14 34 3-4 12-26 14-34 7-15h39l1 6 1 62v64h-13l-14-1-4-1-1-2-1-16-1-59-17 41-7 17-8 17-3 4-12-1-5-4-9-19-10-24-13-31v-2h-2l1 3v77h-24l-7-1-1-8v-42z" fill="#FEE066"/>
<path transform="translate(1427,311)" d="m0 0h5l2 5v23l-3 1h-66v24h61l1 2v24l-7 1h-55v25l72 1v26l-1 1h-96l-7-1-1-1v-121l1-9z" fill="#FDFCFC"/>
<path transform="translate(1441,312)" d="m0 0h36l4 5 12 20 8 14v2l5-5 17-29 4-6 37-1-2 6-10 16-9 15-16 26-1 2 16 26 14 23 11 17v1h-36l-5-4-15-26-8-13-3 3-12 22-10 17-5 1-35-1 2-1 2-5 10-15 13-21 10-17 4-6-1-4-14-23-15-24-8-12z" fill="#FDFCFC"/>
<path transform="translate(1203,311)" d="m0 0h10l1 1 1 28-1 1h-25l-43-1 1 5v19l60 1 1 7v21h-61l-1 52h-14l-14-1-5-1-1-24v-99l1-8z" fill="#FDFCFA"/>
<path transform="translate(670,312)" d="m0 0h99l1 2 1 26-7 1-63-1v25h57l4 1 1 11v15h-62v53l-24-1-7-1-1-5v-125z" fill="#FEE064"/>
<path transform="translate(1228,312)" d="m0 0 32 1 1 2 1 100 58 1 1 1 1 27-1 1h-26l-60-1-7-2-1-123z" fill="#FDFCFB"/>
<path transform="translate(837,313)" d="m0 0h30l3 3v100h59l1 1 1 27-1 1h-24l-63-1-6-2z" fill="#FEE066"/>
<path transform="translate(784,313)" d="m0 0h31l1 1 1 18 1 113-1 1-20-1-12-2-1-3z" fill="#FEE064"/>
<path transform="translate(467,266)" d="m0 0 5 1 4 4v5l-4 3h-6l-3-2v-7z" fill="#FDFDFD"/>
<path transform="translate(499,285)" d="m0 0h7l3 3-1 7-5 3-5-2-2-3v-5z" fill="#FDFDFD"/>
<path transform="translate(476,288)" d="m0 0 7 1 1 1v9l-3 2h-6l-3-4v-5z" fill="#FDFDFD"/>
<path transform="translate(482,250)" d="m0 0h6l3 3v5l-4 4-6-1-3-4 1-5z" fill="#FDFDFD"/>
<path transform="translate(502,262)" d="m0 0 7 1 2 2v6l-4 3-6-1-2-2v-6z" fill="#FDFDFD"/>
<path transform="translate(356,304)" d="m0 0 5 1v7l-5 3-5-2v-6l1-2z" fill="#FDFDFD"/>
<path transform="translate(1320,442)" d="m0 0h2l-1 3h-26l-32-1v-1z" fill="#FEE16B"/>
<path transform="translate(328,289)" d="m0 0 5 2 2 5-4 4h-5l-2-2 1-7z" fill="#FDFDFD"/>
<path transform="translate(355,286)" d="m0 0h5l3 3v5l-3 2-6-1-1-1v-7z" fill="#FDFDFD"/>
<path transform="translate(339,276)" d="m0 0h5l3 5-2 4-5 1-4-4 1-4z" fill="#FDFDFD"/>
<path transform="translate(334,308)" d="m0 0h5l2 2v6l-5 2-5-5 2-4z" fill="#FDFDFD"/>
<path transform="translate(1320,442)" d="m0 0h2l-1 3h-22v-1z" fill="#FEECA4"/>
<path transform="translate(1439,321)" d="m0 0 2 4h-2z" fill="#FDFDFD"/>
<path transform="translate(1503,403)" d="m0 0 1 4z" fill="#FEEEAF"/>
<path transform="translate(1054,392)" d="m0 0" fill="#FDFDFD"/>
<path transform="translate(552,335)" d="m0 0 2 2h-2z" fill="#FDFDFD"/>
<path transform="translate(1441,425)" d="m0 0" fill="#FDFDFD"/>
<path transform="translate(1052,400)" d="m0 0" fill="#FDFDFD"/>
<path transform="translate(1053,396)" d="m0 0" fill="#FDFDFD"/>
<path transform="translate(1055,389)" d="m0 0" fill="#FDFDFD"/>
<path transform="translate(1056,385)" d="m0 0" fill="#FDFDFD"/>
<path transform="translate(1503,408)" d="m0 0" fill="#FDFDFD"/>
<path transform="translate(1527,377)" d="m0 0" fill="#FDFDFD"/>
<path transform="translate(1531,375)" d="m0 0" fill="#FDFDFD"/>
<path transform="translate(406,336)" d="m0 0" fill="#FDFDFD"/>
<path transform="translate(417,322)" d="m0 0" fill="#FDFDFD"/>
<path transform="translate(1438,320)" d="m0 0" fill="#FDFDFD"/>
<path transform="translate(1219,319)" d="m0 0" fill="#FDFDFD"/>
</svg>
